<svg width="10" height="10" viewBox="0 0 10 10" fill="none" xmlns="http://www.w3.org/2000/svg">
<path d="M5 4.33366V8.33366M5 4.33366C5 3.40024 5 2.93353 4.81833 2.57701C4.65854 2.2634 4.40358 2.00844 4.08998 1.84865C3.73346 1.66699 3.26675 1.66699 2.33333 1.66699H1.91667C1.68331 1.66699 1.56663 1.66699 1.4775 1.7124C1.3991 1.75235 1.33536 1.8161 1.29541 1.8945C1.25 1.98363 1.25 2.1003 1.25 2.33366V6.83366C1.25 7.06703 1.25 7.1837 1.29541 7.27283C1.33536 7.35124 1.3991 7.41495 1.4775 7.45491C1.56663 7.50033 1.68331 7.50033 1.91667 7.50033H3.14445C3.36953 7.50033 3.48207 7.50033 3.59089 7.51974C3.68748 7.53695 3.78171 7.56545 3.87163 7.60474C3.97293 7.64895 4.06657 7.71137 4.25383 7.83624L5 8.33366M5 4.33366C5 3.40024 5 2.93353 5.18167 2.57701C5.34146 2.2634 5.59642 2.00844 5.91 1.84865C6.26654 1.66699 6.73325 1.66699 7.66667 1.66699H8.08333C8.31671 1.66699 8.43338 1.66699 8.5225 1.7124C8.60092 1.75235 8.66463 1.8161 8.70458 1.8945C8.75 1.98363 8.75 2.1003 8.75 2.33366V6.83366C8.75 7.06703 8.75 7.1837 8.70458 7.27283C8.66463 7.35124 8.60092 7.41495 8.5225 7.45491C8.43338 7.50033 8.31671 7.50033 8.08333 7.50033H6.85554C6.63046 7.50033 6.51792 7.50033 6.40912 7.51974C6.3125 7.53695 6.21829 7.56545 6.12838 7.60474C6.02708 7.64895 5.93342 7.71137 5.74617 7.83624L5 8.33366" stroke="#004341" stroke-linecap="round" stroke-linejoin="round"/>
</svg>
