<svg width="10" height="10" viewBox="0 0 10 10" fill="none" xmlns="http://www.w3.org/2000/svg">
<g clip-path="url(#clip0_1130_326)">
<path d="M9.16671 8.75V7.91667C9.16671 7.14008 8.63554 6.48754 7.91671 6.3025M6.45837 1.37115C7.06917 1.6184 7.50004 2.21721 7.50004 2.91667C7.50004 3.61612 7.06917 4.21496 6.45837 4.46217M7.08337 8.75C7.08337 7.97342 7.08337 7.58517 6.9565 7.27887C6.78733 6.8705 6.46287 6.54604 6.0545 6.37688C5.74821 6.25 5.35996 6.25 4.58337 6.25H3.33337C2.5568 6.25 2.16852 6.25 1.86224 6.37688C1.45385 6.54604 1.1294 6.8705 0.960241 7.27887C0.833374 7.58517 0.833374 7.97342 0.833374 8.75M5.62504 2.91667C5.62504 3.83714 4.87883 4.58333 3.95837 4.58333C3.0379 4.58333 2.29171 3.83714 2.29171 2.91667C2.29171 1.99619 3.0379 1.25 3.95837 1.25C4.87883 1.25 5.62504 1.99619 5.62504 2.91667Z" stroke="#004341" stroke-linecap="round" stroke-linejoin="round"/>
</g>
<defs>
<clipPath id="clip0_1130_326">
<rect width="10" height="10" fill="white"/>
</clipPath>
</defs>
</svg>
